<?xml version="1.0" standalone="no"?>
<!DOCTYPE svg PUBLIC "-//W3C//DTD SVG 20010904//EN"
 "http://www.w3.org/TR/2001/REC-SVG-20010904/DTD/svg10.dtd">
<svg version="1.0" xmlns="http://www.w3.org/2000/svg"
 width="1406.000000pt" height="292.000000pt" viewBox="0 0 1406.000000 292.000000"
 preserveAspectRatio="xMidYMid meet">

<g transform="translate(0.000000,292.000000) scale(0.100000,-0.100000)"
fill="#000000" stroke="none">
<path d="M866 2445 c-74 -30 -156 -109 -188 -179 -19 -42 -23 -69 -23 -146 0
-84 3 -101 27 -148 15 -29 25 -59 21 -67 -10 -27 -90 -75 -152 -91 -107 -27
-215 7 -289 91 -47 53 -72 118 -72 187 0 45 -2 48 -25 48 -23 0 -25 -3 -25
-48 0 -125 69 -234 196 -308 17 -10 17 -12 -12 -27 -49 -25 -115 -98 -143
-157 -21 -46 -26 -70 -26 -145 0 -76 4 -98 26 -145 45 -96 154 -181 252 -197
l37 -6 0 -103 0 -103 -102 -3 c-98 -3 -103 -4 -106 -25 -3 -23 -2 -23 102 -23
l106 0 0 -96 c0 -93 1 -95 23 -92 21 3 22 8 25 95 l3 93 94 0 c95 0 95 0 95
25 0 25 0 25 -95 25 l-95 0 0 105 c0 98 1 105 20 105 34 0 119 37 165 72 59
44 111 126 126 196 7 31 16 61 20 66 4 5 33 5 63 2 l56 -7 0 -495 0 -494 25 0
25 0 0 495 0 495 75 0 75 0 0 -38 c0 -97 108 -231 218 -272 82 -31 194 -25
276 15 98 49 186 174 186 265 l0 30 95 0 96 0 -25 -42 c-74 -130 -156 -278
-156 -283 0 -3 11 -5 25 -5 28 0 35 10 143 206 40 72 72 138 72 147 0 9 -36
92 -79 185 -70 147 -83 167 -105 170 -14 2 -26 1 -26 -3 0 -6 24 -58 103 -227
l46 -98 -94 0 c-88 0 -95 2 -95 20 0 53 -45 136 -104 195 -74 73 -129 95 -233
95 -103 0 -173 -28 -244 -99 -54 -55 -99 -141 -99 -191 0 -18 -7 -20 -75 -20
l-75 0 0 144 0 143 41 7 c94 15 198 96 244 190 85 178 -4 405 -187 478 -66 26
-179 23 -252 -7z m256 -53 c177 -87 223 -322 90 -464 -71 -76 -110 -93 -217
-93 -76 0 -97 4 -138 24 -76 39 -81 49 -56 106 32 73 36 158 10 243 -12 39
-26 74 -31 77 -34 21 12 74 100 115 62 28 175 24 242 -8z m-351 -220 c13 -64
8 -132 -13 -181 l-14 -35 -19 40 c-25 48 -28 204 -6 243 13 23 14 24 27 6 7
-9 18 -43 25 -73z m25 -332 c49 -34 114 -60 150 -60 l24 0 0 -145 0 -145 -64
0 -64 0 -11 47 c-24 92 -84 176 -157 219 l-44 26 44 29 c24 16 50 36 56 44 16
19 14 20 66 -15z m-158 -125 c91 -50 141 -129 149 -239 7 -100 -19 -168 -92
-234 -31 -29 -74 -57 -101 -66 -140 -48 -296 15 -367 148 -18 33 -22 58 -22
131 0 106 18 150 91 220 60 58 109 75 209 72 66 -3 90 -8 133 -32z m974 19
c58 -19 120 -73 156 -132 25 -43 27 -56 27 -147 0 -91 -2 -104 -27 -147 -50
-85 -138 -139 -239 -146 -125 -9 -230 52 -285 164 -36 74 -38 174 -4 252 26
60 109 143 161 159 51 16 160 15 211 -3z"/>
<path d="M870 2260 c0 -5 16 -10 35 -10 l35 0 0 -130 c0 -80 4 -130 10 -130 6
0 10 28 10 63 0 83 8 106 36 113 42 11 54 -10 54 -97 0 -64 3 -79 15 -79 12 0
15 16 15 80 0 68 -3 83 -21 101 -17 17 -29 20 -60 16 -39 -5 -39 -5 -39 29 0
32 2 34 35 34 19 0 35 5 35 10 0 6 -33 10 -80 10 -47 0 -80 -4 -80 -10z"/>
<path d="M4925 2417 c-3 -6 -4 -181 -3 -387 3 -354 4 -375 21 -378 10 -2 29
-1 43 2 l24 6 0 379 c0 336 -2 380 -16 385 -27 10 -64 7 -69 -7z"/>
<path d="M10333 2424 c-10 -4 -13 -91 -13 -385 l0 -379 24 -6 c14 -3 33 -4 43
-2 17 3 18 23 18 388 l0 385 -30 2 c-16 1 -36 0 -42 -3z"/>
<path d="M4656 2384 c-19 -19 -21 -54 -3 -78 9 -13 23 -17 52 -14 39 3 40 4
43 47 2 28 -1 47 -10 52 -21 14 -65 10 -82 -7z"/>
<path d="M6638 2389 c-21 -12 -24 -69 -6 -87 18 -18 85 -15 92 4 10 26 7 69
-6 82 -15 15 -57 15 -80 1z"/>
<path d="M10588 2389 c-21 -12 -24 -69 -6 -87 7 -7 26 -12 43 -12 39 0 55 16
55 55 0 17 -5 36 -12 43 -15 15 -57 15 -80 1z"/>
<path d="M6225 2377 c-133 -44 -207 -143 -224 -299 -23 -208 48 -365 187 -412
92 -32 257 -10 307 40 14 14 22 94 10 94 -3 0 -29 -13 -58 -29 -103 -58 -212
-50 -279 20 -47 50 -68 118 -68 225 0 137 55 248 136 274 59 20 155 9 203 -23
54 -36 71 -35 71 4 0 46 -14 64 -70 88 -63 27 -162 35 -215 18z"/>
<path d="M2843 2369 c-10 -10 -13 -94 -13 -348 0 -185 4 -342 9 -350 7 -10 39
-12 157 -9 179 5 228 21 299 100 60 67 80 133 80 263 0 170 -52 264 -177 320
-56 25 -76 28 -203 33 -107 3 -143 1 -152 -9z m310 -98 c88 -43 122 -114 122
-257 0 -92 -3 -105 -30 -159 -25 -50 -39 -63 -84 -87 -47 -25 -64 -28 -142
-28 l-89 0 0 281 0 282 89 -5 c63 -4 102 -12 134 -27z"/>
<path d="M2353 2323 c-10 -4 -13 -186 -13 -864 l0 -859 24 -6 c14 -3 33 -4 43
-2 17 3 18 39 21 863 2 680 0 860 -10 867 -14 8 -46 9 -65 1z"/>
<path d="M3627 2190 c-20 -6 -55 -19 -77 -30 -35 -18 -40 -25 -40 -55 0 -19 5
-35 10 -35 6 0 33 11 60 25 67 34 148 35 186 2 20 -18 28 -35 31 -74 l5 -50
-79 -5 c-104 -8 -160 -25 -199 -65 -59 -59 -58 -153 2 -210 58 -54 169 -59
244 -9 l40 26 0 -25 c0 -29 19 -40 56 -31 l25 7 -3 212 c-3 240 -10 266 -81
300 -44 22 -128 30 -180 17z m173 -343 c0 -45 -4 -57 -27 -79 -53 -51 -122
-62 -167 -27 -21 16 -26 29 -26 63 0 69 41 94 158 95 l62 1 0 -53z"/>
<path d="M4255 2189 c-17 -5 -50 -25 -73 -45 l-42 -36 0 41 0 41 -40 0 -40 0
2 -267 c3 -250 4 -268 21 -271 10 -2 29 -1 43 2 l24 6 0 184 0 183 44 41 c50
46 94 59 137 42 54 -23 62 -55 68 -265 l6 -190 28 -3 c57 -7 60 3 55 218 -6
246 -19 281 -115 316 -43 15 -75 16 -118 3z"/>
<path d="M5325 2191 c-126 -31 -192 -140 -183 -302 9 -151 78 -228 212 -237
90 -5 141 9 193 52 60 52 86 120 86 227 0 142 -50 222 -160 255 -49 15 -99 16
-148 5z m149 -96 c43 -28 61 -80 61 -175 0 -132 -45 -190 -148 -190 -102 0
-151 64 -151 196 1 128 65 201 166 190 26 -3 58 -12 72 -21z"/>
<path d="M7005 2191 c-48 -13 -109 -41 -117 -54 -11 -17 -10 -67 1 -67 5 0 33
11 63 25 57 27 130 33 171 14 31 -14 47 -48 47 -98 l0 -38 -84 -6 c-93 -7
-147 -25 -189 -65 -67 -64 -53 -180 28 -227 62 -37 145 -35 208 5 42 26 47 27
47 11 0 -25 24 -43 52 -39 l23 3 0 222 c0 210 -1 223 -21 250 -12 15 -35 36
-51 45 -34 21 -134 31 -178 19z m165 -345 c0 -49 -3 -57 -35 -85 -42 -36 -72
-46 -120 -37 -40 8 -65 38 -65 81 0 66 45 92 158 94 l62 1 0 -54z"/>
<path d="M7610 2189 c-14 -6 -42 -27 -63 -47 l-39 -37 2 30 c4 54 2 56 -37 53
l-38 -3 -3 -262 -2 -263 24 -6 c61 -15 61 -15 66 177 5 188 7 194 66 253 27
26 34 28 82 23 l52 -6 0 40 c0 33 -4 41 -26 49 -31 12 -51 12 -84 -1z"/>
<path d="M7894 2182 c-75 -27 -104 -48 -104 -78 0 -35 18 -38 74 -9 58 30 148
34 183 10 22 -16 43 -70 43 -112 0 -21 -5 -23 -52 -23 -70 0 -169 -22 -202
-44 -66 -43 -87 -142 -43 -207 57 -86 199 -94 285 -16 l22 20 0 -32 c0 -36 16
-47 56 -37 l26 7 -4 207 c-3 178 -6 212 -22 245 -36 73 -161 106 -262 69z
m196 -335 c0 -58 -15 -79 -77 -111 -98 -49 -191 35 -135 122 15 22 83 41 150
42 l62 0 0 -53z"/>
<path d="M8530 2185 c-19 -9 -49 -27 -66 -40 l-33 -25 -3 32 c-3 29 -7 33 -37
36 -19 2 -37 -2 -41 -8 -12 -20 -12 -487 0 -510 12 -23 58 -28 78 -8 8 8 12
65 12 189 l0 177 40 40 c63 63 128 65 167 5 15 -23 18 -55 21 -220 4 -193 4
-193 27 -199 13 -3 33 -3 44 1 20 6 21 13 21 189 l0 183 44 41 c52 48 85 59
124 43 53 -22 57 -39 60 -253 l4 -198 23 -6 c13 -3 32 -4 42 -2 17 3 18 18 18
218 0 208 -1 216 -23 253 -57 90 -172 98 -264 18 l-44 -39 -19 28 c-39 58
-130 84 -195 55z"/>
<path d="M9347 2186 c-67 -19 -101 -46 -105 -84 -4 -38 1 -39 70 -7 35 17 71
25 106 25 46 0 58 -4 83 -29 23 -24 29 -38 29 -74 l0 -44 -87 -6 c-116 -8
-183 -40 -212 -101 -26 -52 -26 -79 -2 -133 27 -59 83 -86 167 -81 46 3 72 11
103 31 l41 27 0 -25 c0 -18 7 -26 25 -31 56 -14 56 -14 53 225 -3 205 -4 221
-24 248 -12 15 -35 36 -51 45 -41 24 -137 31 -196 14z m183 -339 c0 -45 -4
-57 -27 -79 -39 -36 -66 -48 -106 -48 -51 0 -87 33 -87 79 0 72 41 98 158 100
l62 1 0 -53z"/>
<path d="M9898 2190 c-85 -25 -128 -84 -128 -177 0 -36 6 -67 15 -80 14 -20
13 -25 -5 -56 -28 -47 -29 -101 -2 -136 19 -26 20 -31 6 -42 -27 -22 -44 -67
-44 -113 0 -54 35 -95 97 -114 51 -15 189 -16 234 -1 141 48 176 209 58 270
-30 15 -68 22 -147 26 -129 7 -144 13 -140 56 3 28 6 32 28 29 110 -15 146
-13 190 10 76 40 113 149 76 221 -15 27 -15 27 18 27 49 0 76 42 44 67 -16 13
-264 23 -300 13z m139 -95 c33 -38 32 -117 -1 -150 -32 -32 -69 -40 -118 -26
-75 23 -90 127 -27 185 28 25 38 28 78 23 33 -4 52 -12 68 -32z m43 -425 c33
-24 33 -85 0 -112 -50 -41 -154 -47 -220 -13 -26 13 -30 21 -30 54 0 28 8 49
27 71 l26 32 86 -7 c59 -5 94 -12 111 -25z"/>
<path d="M10957 2190 c-20 -5 -55 -19 -77 -30 -35 -18 -40 -25 -40 -55 0 -41
6 -42 62 -13 26 14 67 24 103 26 82 5 113 -19 122 -94 l5 -51 -78 -5 c-104 -7
-159 -25 -200 -63 -76 -72 -47 -213 52 -245 57 -19 142 -9 189 23 l40 27 5
-27 c5 -24 10 -28 40 -28 l35 0 0 215 c0 240 -4 259 -68 299 -40 25 -134 35
-190 21z m171 -346 c-3 -52 -6 -60 -40 -87 -79 -63 -182 -37 -182 46 0 67 47
94 162 96 l63 1 -3 -56z"/>
<path d="M4657 2183 c-4 -3 -7 -122 -7 -264 l0 -259 24 -6 c14 -3 33 -4 43 -2
17 3 18 21 21 271 l2 267 -38 0 c-21 0 -42 -3 -45 -7z"/>
<path d="M6637 2183 c-4 -3 -7 -122 -7 -264 l0 -259 24 -6 c14 -3 33 -4 43 -2
17 3 18 21 21 271 l2 267 -38 0 c-21 0 -42 -3 -45 -7z"/>
<path d="M10587 2183 c-4 -3 -7 -122 -7 -264 l0 -259 24 -6 c14 -3 33 -4 43
-2 17 3 18 21 21 271 l2 267 -38 0 c-21 0 -42 -3 -45 -7z"/>
<path d="M6259 1276 c-97 -26 -169 -84 -214 -174 -76 -151 -48 -359 62 -463
64 -62 116 -82 220 -87 74 -3 105 0 161 17 38 11 75 27 81 35 8 9 11 64 9 177
l-3 164 -132 3 c-125 2 -132 2 -138 -18 -3 -11 -3 -29 0 -40 6 -18 15 -20 96
-20 l90 0 -3 -102 -3 -103 -30 -15 c-43 -21 -160 -19 -206 3 -114 56 -171 199
-136 341 22 91 59 143 127 179 50 26 62 29 135 25 62 -4 93 -11 138 -34 65
-32 79 -26 68 29 -15 71 -194 118 -322 83z"/>
<path d="M6953 1275 c-153 -43 -227 -163 -227 -365 1 -199 70 -316 209 -351
70 -18 201 -7 255 20 126 64 177 181 168 383 -7 165 -59 256 -171 303 -55 23
-172 28 -234 10z m209 -104 c66 -42 91 -100 96 -220 5 -111 -9 -181 -46 -236
-42 -61 -83 -80 -172 -80 -92 0 -137 24 -178 93 -26 45 -27 53 -27 182 0 148
11 184 72 242 39 37 68 47 144 47 55 1 72 -3 111 -28z"/>
<path d="M7744 1280 c-96 -19 -188 -89 -232 -177 -63 -124 -52 -308 24 -420
62 -91 152 -133 285 -133 77 0 185 26 217 52 9 8 12 52 10 177 l-3 166 -135 0
-135 0 0 -35 0 -35 89 -5 89 -5 -2 -100 c-1 -55 -5 -103 -10 -107 -4 -4 -33
-13 -64 -19 -117 -24 -223 25 -271 123 -69 141 -30 329 85 405 39 26 51 28
133 28 79 0 98 -4 147 -27 31 -16 61 -28 67 -28 7 0 12 16 12 39 0 34 -5 42
-33 60 -69 43 -180 59 -273 41z"/>
<path d="M8698 1277 c-131 -37 -212 -155 -225 -328 -13 -173 47 -312 162 -372
56 -29 185 -35 253 -13 77 26 102 50 102 97 0 44 -10 48 -48 20 -34 -24 -114
-51 -150 -51 -45 0 -100 19 -132 47 -106 89 -116 348 -17 459 42 49 77 64 145
64 46 0 72 -7 118 -30 32 -16 62 -30 66 -30 12 0 19 37 12 64 -14 59 -183 102
-286 73z"/>
<path d="M10413 1281 c-147 -38 -200 -202 -99 -309 17 -19 75 -56 129 -84 114
-59 137 -83 137 -145 0 -37 -5 -50 -30 -73 -54 -50 -138 -51 -232 -4 -59 30
-66 30 -74 0 -15 -60 58 -107 179 -114 83 -5 142 10 192 50 87 69 86 243 -2
306 -16 11 -69 40 -119 65 -99 50 -134 83 -134 128 0 99 106 137 220 79 54
-28 60 -26 60 20 0 36 -3 41 -40 60 -45 23 -139 33 -187 21z"/>
<path d="M11307 1280 c-108 -28 -185 -101 -218 -210 -18 -61 -21 -89 -17 -188
6 -167 41 -237 147 -300 36 -21 61 -27 131 -30 208 -10 319 84 350 296 29 195
-35 357 -161 412 -59 25 -173 35 -232 20z m210 -116 c59 -48 86 -125 85 -244
0 -179 -60 -268 -188 -285 -154 -21 -244 83 -244 280 0 138 37 221 119 265 28
16 52 20 113 18 68 -3 80 -6 115 -34z"/>
<path d="M2830 921 l0 -361 25 -6 c14 -3 36 -3 50 0 l25 6 0 165 0 165 160 0
160 0 0 -165 0 -165 25 -6 c14 -3 36 -3 50 0 l25 6 -2 358 -3 357 -45 0 -45 0
-3 -152 -3 -153 -159 0 -159 0 -3 153 -3 152 -47 3 -48 3 0 -360z"/>
<path d="M3460 1271 c0 -6 47 -105 105 -222 l105 -212 0 -137 c0 -148 1 -150
54 -150 41 0 46 16 46 161 l0 138 100 201 c55 110 100 207 100 215 0 11 -12
15 -45 15 l-44 0 -59 -122 c-32 -68 -67 -144 -78 -170 -21 -53 -29 -59 -40
-25 -3 12 -38 88 -77 170 l-70 147 -49 0 c-26 0 -48 -4 -48 -9z"/>
<path d="M4102 1272 c-9 -6 -12 -86 -10 -363 3 -334 4 -354 21 -357 10 -2 29
-1 43 2 24 6 24 7 24 141 l0 135 83 0 c168 0 258 82 259 236 0 87 -33 144
-105 181 -46 23 -66 27 -177 30 -69 2 -131 0 -138 -5z m230 -82 c58 -17 88
-60 88 -128 0 -107 -50 -152 -170 -152 l-70 0 0 145 0 145 58 0 c31 0 74 -5
94 -10z"/>
<path d="M4686 1264 c-14 -13 -16 -60 -16 -360 l0 -344 24 -6 c14 -3 33 -4 43
-2 17 3 18 23 23 308 l5 304 33 -65 c88 -168 278 -505 294 -521 14 -14 31 -18
66 -16 l47 3 0 355 0 355 -31 3 c-54 5 -55 0 -52 -302 2 -151 0 -272 -3 -268
-4 4 -73 129 -154 279 -106 195 -154 274 -172 282 -35 16 -89 14 -107 -5z"/>
<path d="M5577 1273 c-20 -34 -248 -696 -243 -708 7 -18 56 -20 78 -2 9 6 28
49 43 95 l27 82 148 0 c131 0 149 -2 155 -17 4 -10 18 -49 32 -88 14 -38 31
-73 37 -77 20 -14 76 -9 82 7 5 13 -110 354 -211 625 l-32 85 -56 3 c-30 2
-57 -1 -60 -5z m117 -274 c31 -88 56 -165 56 -170 0 -5 -54 -9 -120 -9 -66 0
-120 2 -120 4 0 17 114 336 120 336 4 0 33 -72 64 -161z"/>
<path d="M8232 918 c3 -342 4 -363 21 -366 10 -2 29 -1 43 2 l24 6 0 360 0
360 -45 0 -45 0 2 -362z"/>
<path d="M9298 1274 c-8 -7 -5 -16 87 -279 42 -121 93 -268 113 -327 38 -113
42 -118 107 -118 17 0 35 4 41 8 9 6 254 695 254 715 0 5 -21 7 -47 5 l-48 -3
-100 -302 c-55 -167 -102 -303 -105 -303 -3 0 -47 127 -99 283 -52 155 -99
292 -104 305 -8 18 -18 22 -52 22 -23 0 -44 -3 -47 -6z"/>
<path d="M10017 1274 c-4 -4 -7 -166 -7 -360 l0 -354 25 -6 c14 -3 36 -3 50 0
l25 6 -2 358 -3 357 -40 3 c-23 2 -44 0 -48 -4z"/>
<path d="M10820 921 l0 -361 25 -6 c14 -3 36 -3 50 0 l25 6 -2 358 -3 357 -47
3 -48 3 0 -360z"/>
<path d="M11866 1264 c-14 -13 -16 -60 -16 -359 0 -339 0 -344 21 -350 11 -4
31 -4 45 -1 l24 6 0 303 c1 281 2 300 17 272 79 -152 307 -556 317 -565 8 -6
36 -10 63 -8 l48 3 3 352 c2 349 2 352 -19 358 -11 4 -31 4 -45 1 l-24 -6 0
-288 -1 -287 -31 60 c-93 183 -272 497 -291 510 -28 20 -91 19 -111 -1z"/>
<path d="M12602 1272 c-9 -7 -12 -85 -10 -358 l3 -349 193 -3 193 -2 -3 37 -3
38 -147 3 -148 3 0 124 0 124 128 3 127 3 0 35 0 35 -127 3 -128 3 0 114 0
114 148 3 147 3 0 35 0 35 -180 2 c-99 2 -186 -1 -193 -5z"/>
<path d="M13150 1270 c-13 -8 -15 -60 -18 -345 -2 -225 1 -341 8 -355 11 -21
53 -27 77 -12 10 6 13 85 15 316 l3 309 84 -219 c46 -120 100 -261 119 -312
28 -74 40 -94 59 -98 59 -15 60 -13 188 307 66 165 123 306 127 312 4 7 8
-129 8 -300 l0 -313 24 -6 c14 -3 33 -4 43 -2 17 3 18 23 21 352 2 249 -1 353
-9 362 -15 18 -99 18 -125 0 -13 -9 -63 -117 -134 -290 -63 -152 -117 -273
-120 -269 -4 5 -54 126 -110 271 -75 190 -111 269 -128 283 -27 21 -105 26
-132 9z"/>
</g>
</svg>
