<svg width="1023" height="1023" version="1.1" xmlns="http://www.w3.org/2000/svg" desc="Created with imagetracer.js version 1.2.6" ><path fill="rgb(0,0,0)" stroke="rgb(0,0,0)" stroke-width="1" opacity="0" d="M 0 0 L 1023 0 L 1023 1023 L 0 1023 L 0 0 Z M 33 33 L 33 264 L 264 264 L 264 33 L 33 33 Z M 330 33 L 330 66 L 297 66 L 297 99 L 330 99 L 330 132 L 297 132 L 297 165 L 363 165 L 363 132 L 396 132 L 396 165 L 429 165 L 429 99 L 495 99 L 495 66 L 396 66 L 396 99 L 363 99 L 363 33 L 330 33 Z M 495 33 L 495 66 L 528 66 L 528 33 L 495 33 Z M 561 33 L 561 66 L 594 66 L 594 33 L 561 33 Z M 627 33 L 627 99 L 660 99 L 660 66 L 726 66 L 726 33 L 627 33 Z M 759 33 L 759 264 L 990 264 L 990 33 L 759 33 Z M 528 66 L 528 99 L 561 99 L 561 66 L 528 66 Z M 495 99 L 495 132 L 528 132 L 528 99 L 495 99 Z M 561 99 L 561 132 L 594 132 L 594 99 L 561 99 Z M 660 99 L 660 132 L 693 132 L 693 99 L 660 99 Z M 462 132 L 462 165 L 429 165 L 429 198 L 462 198 L 462 231 L 495 231 L 495 264 L 528 264 L 528 231 L 561 231 L 561 297 L 594 297 L 594 198 L 693 198 L 693 264 L 726 264 L 726 264 L 726 132 L 693 132 L 693 165 L 627 165 L 627 132 L 594 132 L 594 165 L 561 165 L 561 198 L 495 198 L 495 132 L 462 132 Z M 363 165 L 363 264 L 396 264 L 396 165 L 363 165 Z M 297 198 L 297 264 L 330 264 L 330 198 L 297 198 Z M 429 231 L 429 330 L 462 330 L 462 363 L 396 363 L 396 396 L 363 396 L 363 330 L 396 330 L 396 298 L 396 297 L 231 297 L 231 330 L 264 330 L 264 363 L 165 363 L 165 396 L 198 396 L 198 429 L 231 429 L 231 396 L 264 396 L 264 429 L 297 429 L 297 363 L 330 363 L 330 462 L 297 462 L 297 495 L 363 495 L 363 528 L 396 528 L 396 462 L 363 462 L 363 429 L 396 429 L 396 462 L 429 462 L 429 396 L 495 396 L 495 429 L 462 429 L 462 462 L 495 462 L 495 495 L 528 495 L 528 462 L 561 462 L 561 495 L 594 495 L 594 462 L 627 462 L 627 429 L 528 429 L 528 396 L 594 396 L 594 330 L 561 330 L 561 363 L 495 363 L 495 330 L 528 330 L 528 297 L 462 297 L 462 231 L 429 231 Z M 627 231 L 627 264 L 660 264 L 660 231 L 627 231 Z M 33 297 L 33 429 L 34 429 L 66 429 L 66 462 L 132 462 L 132 429 L 165 429 L 165 396 L 132 396 L 132 363 L 99 363 L 99 330 L 132 330 L 132 363 L 165 363 L 165 330 L 198 330 L 198 298 L 198 297 L 33 297 Z M 594 297 L 594 330 L 627 330 L 627 297 L 594 297 Z M 726 297 L 726 330 L 627 330 L 627 396 L 660 396 L 660 363 L 693 363 L 693 396 L 726 396 L 726 364 L 727 363 L 858 363 L 858 330 L 825 330 L 825 297 L 792 297 L 792 330 L 759 330 L 759 297 L 726 297 Z M 858 297 L 858 330 L 891 330 L 891 297 L 858 297 Z M 924 297 L 924 330 L 957 330 L 957 297 L 924 297 Z M 957 330 L 957 363 L 990 363 L 990 330 L 957 330 Z M 726 396 L 726 429 L 759 429 L 759 396 L 726 396 Z M 792 396 L 792 429 L 825 429 L 825 396 L 792 396 Z M 858 396 L 858 462 L 924 462 L 924 429 L 891 429 L 891 396 L 858 396 Z M 924 396 L 924 429 L 957 429 L 957 396 L 924 396 Z M 231 429 L 231 462 L 264 462 L 264 429 L 231 429 Z M 660 429 L 660 462 L 627 462 L 627 495 L 693 495 L 693 528 L 759 528 L 759 495 L 792 495 L 792 462 L 694 462 L 693 462 L 693 429 L 660 429 Z M 165 462 L 165 528 L 132 528 L 132 496 L 132 495 L 33 495 L 33 528 L 66 528 L 66 561 L 99 561 L 99 594 L 132 594 L 132 562 L 133 561 L 231 561 L 231 528 L 264 528 L 264 495 L 198 495 L 198 462 L 165 462 Z M 429 462 L 429 495 L 462 495 L 462 462 L 429 462 Z M 825 462 L 825 495 L 858 495 L 858 462 L 825 462 Z M 957 462 L 957 495 L 990 495 L 990 462 L 957 462 Z M 462 495 L 462 528 L 495 528 L 495 495 L 462 495 Z M 528 495 L 528 561 L 462 561 L 462 528 L 429 528 L 429 594 L 561 594 L 561 595 L 561 627 L 396 627 L 396 561 L 363 561 L 363 528 L 297 528 L 297 594 L 264 594 L 264 627 L 297 627 L 297 660 L 264 660 L 264 693 L 330 693 L 330 627 L 363 627 L 363 660 L 396 660 L 396 726 L 429 726 L 429 660 L 495 660 L 495 693 L 528 693 L 528 726 L 561 726 L 561 693 L 594 693 L 594 627 L 693 627 L 693 660 L 627 660 L 627 693 L 660 693 L 660 726 L 693 726 L 693 759 L 660 759 L 660 726 L 627 726 L 627 693 L 594 693 L 594 726 L 561 726 L 561 759 L 627 759 L 627 792 L 660 792 L 660 825 L 693 825 L 693 858 L 792 858 L 792 891 L 661 891 L 660 891 L 660 858 L 627 858 L 627 924 L 693 924 L 693 957 L 792 957 L 792 958 L 792 990 L 793 990 L 924 990 L 924 957 L 891 957 L 891 924 L 924 924 L 924 957 L 957 957 L 957 891 L 990 891 L 990 825 L 891 825 L 891 858 L 858 858 L 858 891 L 825 891 L 825 858 L 858 858 L 858 792 L 924 792 L 924 760 L 925 759 L 990 759 L 990 693 L 957 693 L 957 660 L 924 660 L 924 693 L 891 693 L 891 726 L 858 726 L 858 660 L 825 660 L 825 627 L 858 627 L 858 594 L 825 594 L 825 561 L 858 561 L 858 528 L 825 528 L 825 495 L 792 495 L 792 594 L 627 594 L 627 561 L 594 561 L 594 528 L 561 528 L 561 495 L 528 495 Z M 594 495 L 594 528 L 627 528 L 627 495 L 594 495 Z M 858 495 L 858 528 L 924 528 L 924 495 L 858 495 Z M 660 528 L 660 561 L 693 561 L 693 528 L 660 528 Z M 924 528 L 924 561 L 957 561 L 957 528 L 924 528 Z M 33 561 L 33 726 L 66 726 L 66 627 L 99 627 L 99 594 L 66 594 L 66 561 L 33 561 Z M 231 561 L 231 594 L 264 594 L 264 561 L 231 561 Z M 858 561 L 858 594 L 891 594 L 891 660 L 924 660 L 924 561 L 858 561 Z M 957 594 L 957 627 L 990 627 L 990 594 L 957 594 Z M 99 627 L 99 660 L 132 660 L 132 627 L 99 627 Z M 231 627 L 231 660 L 264 660 L 264 627 L 231 627 Z M 165 660 L 165 693 L 99 693 L 99 726 L 100 726 L 264 726 L 264 693 L 198 693 L 198 660 L 165 660 Z M 330 693 L 330 726 L 297 726 L 297 792 L 330 792 L 330 759 L 363 759 L 363 792 L 396 792 L 396 726 L 363 726 L 363 693 L 330 693 Z M 429 726 L 429 759 L 462 759 L 462 792 L 429 792 L 429 858 L 462 858 L 462 825 L 495 825 L 495 792 L 561 792 L 561 759 L 495 759 L 495 727 L 495 726 L 429 726 Z M 33 759 L 33 990 L 264 990 L 264 759 L 33 759 Z M 561 792 L 561 825 L 594 825 L 594 792 L 561 792 Z M 297 825 L 297 990 L 330 990 L 330 924 L 363 924 L 363 990 L 429 990 L 429 924 L 462 924 L 462 892 L 462 891 L 330 891 L 330 825 L 297 825 Z M 495 825 L 495 858 L 528 858 L 528 825 L 495 825 Z M 594 825 L 594 858 L 627 858 L 627 825 L 594 825 Z M 561 858 L 561 891 L 594 891 L 594 858 L 561 858 Z M 528 891 L 528 924 L 561 924 L 561 891 L 528 891 Z M 495 924 L 495 957 L 528 957 L 528 924 L 495 924 Z M 561 924 L 561 957 L 594 957 L 594 924 L 561 924 Z M 594 957 L 594 990 L 693 990 L 693 957 L 594 957 Z " /><path fill="rgb(0,0,0)" stroke="rgb(0,0,0)" stroke-width="1" opacity="0" d="M 66 66 L 231 66 L 231 231 L 66 231 L 66 66 Z M 99 99 L 99 198 L 198 198 L 198 99 L 99 99 Z " /><path fill="rgb(0,0,0)" stroke="rgb(0,0,0)" stroke-width="1" opacity="0" d="M 792 66 L 957 66 L 957 231 L 792 231 L 792 66 Z M 825 99 L 825 198 L 924 198 L 924 99 L 825 99 Z " /><path fill="rgb(0,0,0)" stroke="rgb(0,0,0)" stroke-width="1" opacity="0" d="M 726 627 L 759 627 L 759 660 L 726 660 L 726 627 Z " /><path fill="rgb(0,0,0)" stroke="rgb(0,0,0)" stroke-width="1" opacity="0" d="M 726 726 L 825 726 L 825 825 L 726 825 L 726 726 Z M 759 759 L 759 792 L 792 792 L 792 759 L 759 759 Z " /><path fill="rgb(0,0,0)" stroke="rgb(0,0,0)" stroke-width="1" opacity="0" d="M 66 792 L 231 792 L 231 957 L 66 957 L 66 792 Z M 99 825 L 99 924 L 198 924 L 198 825 L 99 825 Z " /><path fill="rgb(0,0,0)" stroke="rgb(0,0,0)" stroke-width="1" opacity="0" d="M 825 924 L 858 924 L 858 957 L 825 957 L 825 924 Z " /><path fill="rgb(0,0,0)" stroke="rgb(0,0,0)" stroke-width="1" opacity="1" d="M 33 33 L 264 33 L 264 264 L 33 264 L 33 33 Z M 66 66 L 66 231 L 231 231 L 231 66 L 66 66 Z " /><path fill="rgb(0,0,0)" stroke="rgb(0,0,0)" stroke-width="1" opacity="1" d="M 330 33 L 363 33 L 363 99 L 396 99 L 396 66 L 494.5 66 L 495 65.5 L 495 33 L 528 33 L 528 66 L 561 66 L 561 33 L 594 33 L 594 66 L 561 66 L 561 99 L 594 99 L 594 132 L 627 132 L 627 165 L 693 165 L 693 132 L 660 132 L 660 99 L 627 99 L 627 33 L 726 33 L 726 66 L 660 66 L 660 99 L 693 99 L 693 132 L 726 132 L 726 264 L 693 264 L 693 198 L 594 198 L 594 296.5 L 594.5 297 L 627 297 L 627 330 L 726 330 L 726 297 L 759 297 L 759 330 L 792 330 L 792 297 L 825 297 L 825 330 L 858 330 L 858 297 L 891 297 L 891 330 L 858 330 L 858 363 L 726.5 363 L 726 363.5 L 726 396 L 759 396 L 759 429 L 726 429 L 726 396 L 693 396 L 693 363 L 660 363 L 660 396 L 627 396 L 627 330 L 594 330 L 594 396 L 528 396 L 528 429 L 626.5 429 L 627 429.5 L 627 462 L 660 462 L 660 429 L 693 429 L 693 462 L 791.5 462 L 792 462.5 L 792 495 L 825 495 L 825 462 L 858 462 L 858 396 L 891 396 L 891 429 L 924 429 L 924 396 L 957 396 L 957 429 L 924 429 L 924 462 L 858 462 L 858 495 L 924 495 L 924 528 L 957 528 L 957 561 L 924 561 L 924 660 L 957 660 L 957 693 L 990 693 L 990 759 L 924.5 759 L 924 759.5 L 924 792 L 858 792 L 858 858 L 891 858 L 891 825.5 L 891.5 825 L 990 825 L 990 891 L 957 891 L 957 957 L 924 957 L 924 990 L 792 990 L 792 957 L 693 957 L 693 990 L 594 990 L 594 957 L 561 957 L 561 924 L 528 924 L 528 957 L 495 957 L 495 924 L 528 924 L 528 891 L 561 891 L 561 858 L 594 858 L 594 825 L 561 825 L 561 792 L 495 792 L 495 825 L 528 825 L 528 858 L 495 858 L 495 825 L 462 825 L 462 858 L 429 858 L 429 792 L 462 792 L 462 759 L 429 759 L 429 726 L 396 726 L 396 792 L 363 792 L 363 759 L 330 759 L 330 792 L 297 792 L 297 726 L 330 726 L 330 693 L 264 693 L 264 725.5 L 263.5 726 L 99 726 L 99 693 L 165 693 L 165 660 L 198 660 L 198 693 L 264 693 L 264 660 L 231 660 L 231 627 L 264 627 L 264 594 L 231 594 L 231 561.5 L 230.5 561 L 132 561 L 132 594 L 99 594 L 99 627 L 132 627 L 132 660 L 99 660 L 99 627 L 66 627 L 66 726 L 33 726 L 33 561.5 L 33.5 561 L 66 561 L 66 528 L 33 528 L 33 495 L 131.5 495 L 132 495.5 L 132 528 L 165 528 L 165 462 L 198 462 L 198 495 L 264 495 L 264 528 L 231 528 L 231 561 L 264 561 L 264 594 L 297 594 L 297 528 L 363 528 L 363 495 L 297 495 L 297 462 L 330 462 L 330 363 L 297 363 L 297 429 L 264 429 L 264 462 L 231 462 L 231 429 L 198 429 L 198 396 L 165 396 L 165 429 L 132 429 L 132 462 L 66 462 L 66 429 L 33.5 429 L 33 428.5 L 33 297 L 197.5 297 L 198 297.5 L 198 330 L 165 330 L 165 363 L 264 363 L 264 330 L 231 330 L 231 297 L 395.5 297 L 396 297.5 L 396 330 L 363 330 L 363 396 L 396 396 L 396 363 L 462 363 L 462 330 L 429 330 L 429 231 L 462 231 L 462 198 L 429 198 L 429 165 L 396 165 L 396 264 L 363 264 L 363 165 L 297 165 L 297 132 L 330 132 L 330 99 L 297 99 L 297 66 L 330 66 L 330 33 Z M 495 66 L 495 99 L 528 99 L 528 66 L 495 66 Z M 429 99 L 429 165 L 462 165 L 462 132 L 495 132 L 495 99 L 429 99 Z M 528 99 L 528 132 L 495 132 L 495 198 L 561 198 L 561 165 L 594 165 L 594 132 L 561 132 L 561 99 L 528 99 Z M 363 132 L 363 165 L 396 165 L 396 132 L 363 132 Z M 462 231 L 462 297 L 528 297 L 528 330 L 495 330 L 495 363 L 561 363 L 561 330 L 594 330 L 594 297 L 561 297 L 561 231 L 528 231 L 528 264 L 495 264 L 495 231 L 462 231 Z M 99 330 L 99 363 L 132 363 L 132 330 L 99 330 Z M 132 363 L 132 396 L 165 396 L 165 363 L 132 363 Z M 231 396 L 231 429 L 264 429 L 264 396 L 231 396 Z M 429 396 L 429 462 L 462 462 L 462 429 L 495 429 L 495 396 L 429 396 Z M 363 429 L 363 462 L 396 462 L 396 429 L 363 429 Z M 396 462 L 396 528 L 363 528 L 363 561 L 396 561 L 396 627 L 561 627 L 561 595 L 561 594 L 429 594 L 429 528 L 462 528 L 462 495 L 429 495 L 429 462 L 396 462 Z M 462 462 L 462 495 L 495 495 L 495 462 L 462 462 Z M 528 462 L 528 495 L 561 495 L 561 462 L 528 462 Z M 594 462 L 594 495 L 627 495 L 627 462 L 594 462 Z M 495 495 L 495 528 L 462 528 L 462 561 L 528 561 L 528 495 L 495 495 Z M 561 495 L 561 528 L 594 528 L 594 495 L 561 495 Z M 627 495 L 627 528 L 594 528 L 594 561 L 627 561 L 627 594 L 792 594 L 792 495 L 759 495 L 759 528 L 693 528 L 693 561 L 660 561 L 660 528 L 693 528 L 693 495 L 627 495 Z M 825 495 L 825 528 L 858 528 L 858 495 L 825 495 Z M 858 528 L 858 561 L 924 561 L 924 528 L 858 528 Z M 66 561 L 66 594 L 99 594 L 99 561 L 66 561 Z M 825 561 L 825 594 L 858 594 L 858 561 L 825 561 Z M 858 594 L 858 627 L 825 627 L 825 660 L 858 660 L 858 726 L 891 726 L 891 693 L 924 693 L 924 660 L 891 660 L 891 594 L 858 594 Z M 264 627 L 264 660 L 297 660 L 297 627 L 264 627 Z M 330 627 L 330 693 L 363 693 L 363 726 L 396 726 L 396 660 L 363 660 L 363 627 L 330 627 Z M 594 627 L 594 693 L 627 693 L 627 660 L 693 660 L 693 627 L 594 627 Z M 726 627 L 726 660 L 759 660 L 759 627 L 726 627 Z M 429 660 L 429 726 L 495 726 L 495 759 L 496 759 L 561 759 L 561 726 L 528 726 L 528 693 L 495 693 L 495 660 L 429 660 Z M 561 693 L 561 726 L 594 726 L 594 693 L 561 693 Z M 627 693 L 627 726 L 660 726 L 660 693 L 627 693 Z M 660 726 L 660 759 L 693 759 L 693 726 L 660 726 Z M 726 726 L 726 825 L 825 825 L 825 726 L 726 726 Z M 561 759 L 561 792 L 594 792 L 594 825 L 627 825 L 627 858 L 660 858 L 660 891 L 792 891 L 792 858 L 693 858 L 693 825 L 660 825 L 660 792 L 627 792 L 627 759 L 561 759 Z M 594 858 L 594 891 L 561 891 L 561 924 L 594 924 L 594 957 L 693 957 L 693 924 L 627 924 L 627 858 L 594 858 Z M 825 858 L 825 891 L 858 891 L 858 858 L 825 858 Z M 825 924 L 825 957 L 858 957 L 858 924 L 825 924 Z M 891 924 L 891 957 L 924 957 L 924 924 L 891 924 Z " /><path fill="rgb(0,0,0)" stroke="rgb(0,0,0)" stroke-width="1" opacity="1" d="M 759 33 L 990 33 L 990 264 L 759 264 L 759 33 Z M 792 66 L 792 231 L 957 231 L 957 66 L 792 66 Z " /><path fill="rgb(0,0,0)" stroke="rgb(0,0,0)" stroke-width="1" opacity="1" d="M 99 99 L 198 99 L 198 198 L 99 198 L 99 99 Z " /><path fill="rgb(0,0,0)" stroke="rgb(0,0,0)" stroke-width="1" opacity="1" d="M 825 99 L 924 99 L 924 198 L 825 198 L 825 99 Z " /><path fill="rgb(0,0,0)" stroke="rgb(0,0,0)" stroke-width="1" opacity="1" d="M 297 198 L 330 198 L 330 264 L 297 264 L 297 198 Z " /><path fill="rgb(0,0,0)" stroke="rgb(0,0,0)" stroke-width="1" opacity="1" d="M 627 231 L 660 231 L 660 264 L 627 264 L 627 231 Z " /><path fill="rgb(0,0,0)" stroke="rgb(0,0,0)" stroke-width="1" opacity="1" d="M 924 297 L 957 297 L 957 330 L 990 330 L 990 363 L 957 363 L 957 330 L 924 330 L 924 297 Z " /><path fill="rgb(0,0,0)" stroke="rgb(0,0,0)" stroke-width="1" opacity="1" d="M 792 396 L 825 396 L 825 429 L 792 429 L 792 396 Z " /><path fill="rgb(0,0,0)" stroke="rgb(0,0,0)" stroke-width="1" opacity="1" d="M 957 462 L 990 462 L 990 495 L 957 495 L 957 462 Z " /><path fill="rgb(0,0,0)" stroke="rgb(0,0,0)" stroke-width="1" opacity="1" d="M 957 594 L 990 594 L 990 627 L 957 627 L 957 594 Z " /><path fill="rgb(0,0,0)" stroke="rgb(0,0,0)" stroke-width="1" opacity="1" d="M 33 759 L 264 759 L 264 990 L 33 990 L 33 759 Z M 66 792 L 66 957 L 231 957 L 231 792 L 66 792 Z " /><path fill="rgb(0,0,0)" stroke="rgb(0,0,0)" stroke-width="1" opacity="1" d="M 759 759 L 792 759 L 792 792 L 759 792 L 759 759 Z " /><path fill="rgb(0,0,0)" stroke="rgb(0,0,0)" stroke-width="1" opacity="1" d="M 99 825 L 198 825 L 198 924 L 99 924 L 99 825 Z " /><path fill="rgb(0,0,0)" stroke="rgb(0,0,0)" stroke-width="1" opacity="1" d="M 297 825 L 330 825 L 330 891 L 461.5 891 L 462 891.5 L 462 924 L 429 924 L 429 990 L 363 990 L 363 924 L 330 924 L 330 990 L 297 990 L 297 825 Z " /></svg>