<?xml version="1.0" standalone="no"?>
<!DOCTYPE svg PUBLIC "-//W3C//DTD SVG 20010904//EN"
 "http://www.w3.org/TR/2001/REC-SVG-20010904/DTD/svg10.dtd">
<svg version="1.0" xmlns="http://www.w3.org/2000/svg"
 width="2000.000000pt" height="2000.000000pt" viewBox="0 0 2000.000000 2000.000000"
 preserveAspectRatio="xMidYMid meet">

<g transform="translate(0.000000,2000.000000) scale(0.100000,-0.100000)"
fill="#000000" stroke="none">
<path d="M9570 19984 c-25 -2 -128 -8 -230 -14 -1469 -87 -2971 -537 -4275
-1280 -2395 -1365 -4118 -3643 -4770 -6305 -138 -562 -223 -1117 -267 -1725
-17 -247 -17 -1073 0 -1320 84 -1177 345 -2256 800 -3310 313 -724 772 -1507
1226 -2090 320 -412 566 -692 895 -1020 1617 -1610 3714 -2612 5976 -2854 400
-43 573 -51 1075 -51 501 0 677 8 1070 51 1377 148 2673 565 3865 1244 1138
649 2132 1506 2937 2535 1154 1474 1863 3222 2062 5080 43 400 51 573 51 1075
0 293 -5 546 -13 660 -83 1154 -330 2198 -770 3240 -871 2065 -2452 3807
-4432 4882 -1250 680 -2586 1071 -4035 1184 -184 14 -1044 28 -1165 18z m913
-4005 c180 -60 317 -198 373 -375 24 -75 24 -75 24 -605 l0 -529 23 -10 c12
-5 41 -14 64 -20 139 -35 955 -765 1348 -1205 616 -690 980 -1324 1100 -1914
47 -232 45 -533 -6 -747 -115 -489 -412 -992 -948 -1609 -164 -189 -475 -507
-599 -613 l-73 -62 -454 0 -455 0 0 -555 0 -555 588 0 c468 0 605 3 677 15
163 26 314 90 443 187 110 83 372 329 577 542 149 155 194 196 223 204 20 5
172 49 337 97 165 48 314 91 330 95 17 4 100 28 185 53 85 25 241 70 345 101
105 30 291 84 415 119 124 36 311 90 415 121 164 47 553 159 890 257 126 36
168 37 200 4 l25 -24 0 -363 c0 -329 -2 -365 -18 -385 -9 -12 -58 -40 -108
-61 -390 -171 -810 -441 -1000 -643 -100 -107 -241 -314 -553 -814 -453 -724
-673 -1022 -945 -1282 -297 -283 -596 -440 -936 -489 -148 -21 -5527 -20
-5750 1 -489 47 -959 200 -1378 449 -986 587 -1613 1643 -1639 2762 -6 245 -4
256 52 280 52 21 2929 21 2981 -1 50 -21 64 -60 57 -166 -6 -97 16 -255 49
-354 125 -368 429 -629 803 -690 73 -12 229 -15 843 -15 l752 0 0 555 0 555
-724 0 -725 0 -26 23 c-17 14 -28 35 -31 62 -5 38 3 52 159 285 381 573 678
1120 837 1545 141 378 191 639 193 1020 3 666 -159 1415 -508 2340 -155 411
-443 1042 -633 1388 -45 82 -82 158 -82 169 0 31 29 58 61 58 16 0 145 -31
286 -70 142 -38 393 -106 558 -151 165 -45 370 -101 456 -125 86 -24 161 -44
167 -44 9 0 12 89 12 344 0 269 3 360 15 417 42 199 194 365 395 430 82 27
251 26 333 -2z m-2784 -2144 c31 -15 39 -31 126 -235 321 -753 528 -1483 580
-2040 49 -531 -16 -826 -306 -1400 -114 -225 -308 -566 -346 -607 l-30 -33
-1371 0 -1370 0 -31 26 c-45 38 -43 90 7 169 22 33 318 497 659 1030 341 534
729 1141 863 1350 133 209 261 409 284 445 23 36 93 144 154 240 594 930 669
1046 692 1057 33 17 55 16 89 -2z"/>
</g>
</svg>
